<?xml version="1.0" encoding="UTF-8"?>
<svg width="64px" height="64px" viewBox="0 0 64 64" version="1.1" xmlns="http://www.w3.org/2000/svg">
    <title>Flower Icon</title>
    <g stroke="none" stroke-width="1" fill="none" fill-rule="evenodd">
        <circle fill="#4CAF50" cx="32" cy="32" r="8"></circle>
        <path d="M32,16 C36.418278,16 40,19.581722 40,24 C40,28.418278 36.418278,32 32,32 C27.581722,32 24,28.418278 24,24 C24,19.581722 27.581722,16 32,16 Z" fill="#8BC34A" transform="translate(32.000000, 24.000000) rotate(-45.000000) translate(-32.000000, -24.000000)"></path>
        <path d="M32,16 C36.418278,16 40,19.581722 40,24 C40,28.418278 36.418278,32 32,32 C27.581722,32 24,28.418278 24,24 C24,19.581722 27.581722,16 32,16 Z" fill="#CDDC39" transform="translate(32.000000, 24.000000) rotate(45.000000) translate(-32.000000, -24.000000)"></path>
        <path d="M32,32 C36.418278,32 40,35.581722 40,40 C40,44.418278 36.418278,48 32,48 C27.581722,48 24,44.418278 24,40 C24,35.581722 27.581722,32 32,32 Z" fill="#FF9800" transform="translate(32.000000, 40.000000) rotate(-45.000000) translate(-32.000000, -40.000000)"></path>
        <path d="M32,32 C36.418278,32 40,35.581722 40,40 C40,44.418278 36.418278,48 32,48 C27.581722,48 24,44.418278 24,40 C24,35.581722 27.581722,32 32,32 Z" fill="#FFC107" transform="translate(32.000000, 40.000000) rotate(45.000000) translate(-32.000000, -40.000000)"></path>
    </g>
</svg>
